# File created by Blade
# Date/Time:  Thu Jan 15 17:55:17 2015
#---------------------------------------------------------
:version 1.10
:name HOM
:units
  mass 1.0
  length 1.000000
  angle deg
:documentation
     Acclaim Skeleton File
:root
   axis xyz
   order TX TY TZ RX RY RZ
   position 0.000000 0.000000 0.000000
   orientation 0 0 0
:bonedata
   begin
      id 1
      name Spine_dum
      direction 0.000000 1.000000 0.000000
      length 5.015652
      axis 0.0 0.0 0.0 xyz
   end
   begin
      id 2
      name LeftUpLeg_dum
      direction 1.000000 0.000000 0.000000
      length 4.275145
      axis 0.0 0.0 0.0 xyz
   end
   begin
      id 3
      name RightUpLeg_dum
      direction -1.000000 0.000000 0.000000
      length 4.275145
      axis 0.0 0.0 0.0 xyz
   end
   begin
      id 4
      name Spine
      direction 0.000000 1.000000 0.000000
      length 0.000000
      axis 0.0 0.0 0.0 xyz
      dof rx ry rz
   end
   begin
      id 5
      name Spine_dum1
      direction 0.000000 1.000000 0.000000
      length 15.980521
      axis 0.0 0.0 0.0 xyz
   end
   begin
      id 6
      name Spine_dum2
      direction 0.000000 1.000000 0.000000
      length 12.162712
      axis 0.0 0.0 0.0 xyz
   end
   begin
      id 7
      name Spine_dum3
      direction 0.000000 1.000000 0.000000
      length 12.162712
      axis 0.0 0.0 0.0 xyz
   end
   begin
      id 8
      name Head
      direction 0.000000 1.000000 0.000000
      length 4.527550
      axis 0.0 0.0 0.0 xyz
      dof rx ry rz
   end
   begin
      id 9
      name LeftShoulder
      direction 1.000000 0.000000 0.000000
      length 7.205867
      axis 0.0 0.0 -90.0 xyz
      dof rx ry rz
   end
   begin
      id 10
      name LeftArm
      direction 1.000000 0.000000 0.000000
      length 10.786708
      axis 0.0 0.0 -90.0 xyz
      dof rx ry rz
   end
   begin
      id 11
      name LeftForeArm
      direction 1.000000 0.000000 0.000000
      length 7.946034
      axis 0.0 0.0 -90.0 xyz
      dof rz ry rx
   end
   begin
      id 12
      name LeftHand
      direction 0.000000 0.000000 0.000000
      length 0.000000
      axis 0.0 0.0 -90.0 xyz
      dof rx ry rz
   end
   begin
      id 13
      name LeftHand_dum1
      direction 0.000000 0.000000 0.000000
      length 0.000000
      axis 0.0 0.0 -90.0 xyz
   end
   begin
      id 14
      name LeftHand_dum2
      direction 1.000000 0.000000 0.000000
      length 3.937000
      axis 0.0 0.0 -90.0 xyz
   end
   begin
      id 15
      name LeftHandThumb1
      direction 0.000000 0.000000 1.000000
      length 3.937000
      axis 0.0 0.0 -90.0 xyz
      dof rx ry rz
   end
   begin
      id 16
      name RightShoulder
      direction -1.000000 0.000000 0.000000
      length 7.205867
      axis 0.0 0.0 90.0 xyz
      dof rx ry rz
   end
   begin
      id 17
      name RightArm
      direction -1.000000 0.000000 0.000000
      length 10.786708
      axis 0.0 0.0 90.0 xyz
      dof rx ry rz
   end
   begin
      id 18
      name RightForeArm
      direction -1.000000 0.000000 0.000000
      length 7.946034
      axis 0.0 0.0 90.0 xyz
      dof rz ry rx
   end
   begin
      id 19
      name RightHand
      direction 0.000000 0.000000 0.000000
      length 0.000000
      axis 0.0 0.0 90.0 xyz
      dof rx ry rz
   end
   begin
      id 20
      name RightHand_dum1
      direction 0.000000 0.000000 0.000000
      length 0.000000
      axis 0.0 0.0 90.0 xyz
   end
   begin
      id 21
      name RightHand_dum2
      direction -1.000000 0.000000 0.000000
      length 3.937000
      axis 0.0 0.0 90.0 xyz
   end
   begin
      id 22
      name RightHandThumb1
      direction 0.000000 0.000000 1.000000
      length 3.937000
      axis 0.0 0.0 90.0 xyz
      dof rx ry rz
   end
   begin
      id 23
      name LeftUpLeg
      direction 0.000000 -1.000000 0.000000
      length 17.046659
      axis 0.0 0.0 0.0 xyz
      dof rx ry rz
   end
   begin
      id 24
      name LeftLeg
      direction 0.000000 -1.000000 0.000000
      length 17.458438
      axis 0.0 0.0 0.0 xyz
      dof rx ry rz
   end
   begin
      id 25
      name LeftFoot
      direction 0.000000 -0.258819 0.965926
      length 5.099406
      axis 15.0 0.0 0.0 xyz
      dof rx ry rz
   end
   begin
      id 26
      name LeftToeBase
      direction 0.000000 0.000000 1.000000
      length 2.952750
      axis 0.0 0.0 0.0 xyz
      dof rx ry rz
   end
   begin
      id 27
      name RightUpLeg
      direction 0.000000 -1.000000 0.000000
      length 17.046659
      axis 0.0 0.0 0.0 xyz
      dof rx ry rz
   end
   begin
      id 28
      name RightLeg
      direction 0.000000 -1.000000 0.000000
      length 17.458438
      axis 0.0 0.0 0.0 xyz
      dof rx ry rz
   end
   begin
      id 29
      name RightFoot
      direction 0.000000 -0.258819 0.965926
      length 5.099406
      axis 15.0 0.0 0.0 xyz
      dof rx ry rz
   end
   begin
      id 30
      name RightToeBase
      direction 0.000000 0.000000 1.000000
      length 2.952750
      axis 0.0 0.0 0.0 xyz
      dof rx ry rz
   end
:hierarchy
   begin
      root Spine_dum LeftUpLeg_dum RightUpLeg_dum
      Spine_dum Spine
      LeftUpLeg_dum LeftUpLeg
      RightUpLeg_dum RightUpLeg
      Spine Spine_dum1 Spine_dum2 Spine_dum3
      Spine_dum1 Head
      Spine_dum2 LeftShoulder
      Spine_dum3 RightShoulder
      LeftShoulder LeftArm
      LeftArm LeftForeArm
      LeftForeArm LeftHand
      LeftHand LeftHand_dum1 LeftHand_dum2
      LeftHand_dum1 LeftHandThumb1
      RightShoulder RightArm
      RightArm RightForeArm
      RightForeArm RightHand
      RightHand RightHand_dum1 RightHand_dum2
      RightHand_dum1 RightHandThumb1
      LeftUpLeg LeftLeg
      LeftLeg LeftFoot
      LeftFoot LeftToeBase
      RightUpLeg RightLeg
      RightLeg RightFoot
      RightFoot RightToeBase
   end

# File created by Blade
# Date/Time:  Thu Jan 15 17:55:09 2015
# Frame Rate: 120.000 fps
#------------------------------------------------------
:FULLY-SPECIFIED
:DEGREES
522
root 8.363400 35.914343 -11.346247 7.148447 5.005324 2.457937
Spine -6.058946 -12.622706 -5.094712
Head -7.171611 4.751391 18.550254
LeftShoulder -30.359405 0.085390 9.183850
LeftArm 29.190899 -26.795501 -43.739976
LeftForeArm -0.000000 21.229505 2.913607
LeftHand 3.645882 -0.000000 10.798222
LeftHandThumb1 -26.253704 33.147579 0.000000
RightShoulder 0.597592 14.448072 -4.106779
RightArm 11.071915 33.940086 47.758822
RightForeArm -0.000000 -47.397805 16.941975
RightHand -5.874696 -0.000000 -5.434378
RightHandThumb1 -24.326973 -32.862282 -0.000000
LeftUpLeg -6.453893 9.523885 -8.096626
LeftLeg 6.818013 -0.000000 -0.000000
LeftFoot -24.013479 16.455668 -14.875243
LeftToeBase 23.229619 -0.000000 -0.000000
RightUpLeg -1.906423 -14.262303 -2.792244
RightLeg 0.829546 -0.000000 -0.000000
RightFoot -23.649214 -29.725531 14.675131
RightToeBase 25.121417 -0.000000 -0.000000
523
root 8.441657 35.901834 -11.320277 6.873639 5.009966 2.545051
Spine -5.867938 -12.582968 -5.234166
Head -7.090275 4.620703 18.503987
LeftShoulder -30.801986 0.321848 8.854393
LeftArm 28.016795 -27.107093 -43.686900
LeftForeArm -0.000000 20.168900 3.237520
LeftHand 3.598750 -0.000000 10.721606
LeftHandThumb1 -26.253704 33.147579 0.000000
RightShoulder 0.113473 13.982394 -3.999606
RightArm 9.631906 34.384792 47.450817
RightForeArm 0.000000 -46.833181 17.453771
RightHand -5.935695 -0.000000 -5.233436
RightHandThumb1 -24.326973 -32.862282 -0.000000
LeftUpLeg -5.817339 9.231521 -8.213492
LeftLeg 6.280098 -0.000000 -0.000000
LeftFoot -23.916457 16.671952 -14.725451
LeftToeBase 23.241638 -0.000000 -0.000000
RightUpLeg -1.863569 -14.100374 -3.078448
RightLeg 1.438657 -0.000000 -0.000000
RightFoot -24.013603 -29.910499 14.670784
RightToeBase 25.208913 -0.000000 -0.000000
524
root 8.516389 35.890001 -11.300161 6.627057 5.043861 2.600130
Spine -5.696551 -12.569519 -5.325615
Head -7.017847 4.542615 18.444026
LeftShoulder -31.229450 0.558716 8.558366
LeftArm 26.826462 -27.325163 -43.702766
LeftForeArm -0.000000 19.042412 3.541768
LeftHand 3.444832 -0.000000 10.741828
LeftHandThumb1 -26.253704 33.147579 0.000000
RightShoulder -0.417749 13.465432 -3.901099
RightArm 8.333038 34.846055 47.301241
RightForeArm 0.000000 -45.985084 17.914009
RightHand -6.109227 -0.000000 -5.400050
RightHandThumb1 -24.326973 -32.862282 -0.000000
LeftUpLeg -5.266496 8.978260 -8.305475
LeftLeg 5.821836 -0.000000 -0.000000
LeftFoot -23.829540 16.843622 -14.535942
LeftToeBase 23.259633 -0.000000 -0.000000
RightUpLeg -1.901806 -13.713208 -3.321204
RightLeg 2.144776 -0.000000 -0.000000
RightFoot -24.449792 -30.269897 14.801613
RightToeBase 25.250717 -0.000000 -0.000000
525
root 8.589900 35.878530 -11.277315 6.315577 5.041375 2.648956
Spine -5.457319 -12.533484 -5.437419
Head -6.923053 4.454680 18.406982
LeftShoulder -31.699321 0.772288 8.272475
LeftArm 25.527945 -27.158853 -43.601326
LeftForeArm -0.000000 17.804839 3.979283
LeftHand 3.266293 -0.000000 10.709530
LeftHandThumb1 -26.253704 33.147579 0.000000
RightShoulder -0.884364 12.947472 -3.801491
RightArm 6.900027 35.399793 47.191069
RightForeArm 0.000000 -45.107429 18.476468
RightHand -6.056900 -0.000000 -5.515133
RightHandThumb1 -24.326973 -32.862282 -0.000000
LeftUpLeg -4.680308 8.901977 -8.388793
LeftLeg 5.420036 -0.000000 -0.000000
LeftFoot -23.743085 16.882222 -14.368973
LeftToeBase 23.299002 -0.000000 -0.000000
RightUpLeg -1.927378 -13.185293 -3.569245
RightLeg 2.942405 -0.000000 -0.000000
RightFoot -24.901360 -30.740719 14.918993
RightToeBase 25.275623 -0.000000 -0.000000
526
root 8.656059 35.867227 -11.265962 6.030251 5.058792 2.697853
Spine -5.216308 -12.529687 -5.568973
Head -6.822612 4.387619 18.389922
LeftShoulder -32.095616 0.968887 8.032728
LeftArm 24.284558 -27.257341 -43.672494
LeftForeArm -0.000000 16.884218 4.216128
LeftHand 3.216644 -0.000000 10.522015
LeftHandThumb1 -26.253704 33.147579 0.000000
RightShoulder -1.323625 12.385225 -3.697593
RightArm 5.409714 35.746324 47.088807
RightForeArm -0.000000 -44.022278 19.117882
RightHand -6.047537 0.000000 -5.805357
RightHandThumb1 -24.326973 -32.862282 -0.000000
LeftUpLeg -4.184068 8.886911 -8.470532
LeftLeg 5.096930 -0.000000 -0.000000
LeftFoot -23.659386 16.849873 -14.202105
LeftToeBase 23.321160 -0.000000 -0.000000
RightUpLeg -2.004680 -12.368377 -3.811552
RightLeg 3.788289 -0.000000 -0.000000
RightFoot -25.330065 -31.387437 15.023090
RightToeBase 25.245335 -0.000000 -0.000000
527
root 8.748184 35.861680 -11.245247 5.684921 5.146052 2.733896
Spine -4.938495 -12.634853 -5.578422
Head -6.705659 4.345238 18.263683
LeftShoulder -32.590898 1.182616 7.696033
LeftArm 23.175616 -27.523186 -44.011289
LeftForeArm -0.000000 16.214089 4.429422
LeftHand 3.114145 -0.000000 10.470376
LeftHandThumb1 -26.253704 33.147579 0.000000
RightShoulder -1.728198 11.796553 -3.620131
RightArm 3.975463 36.020794 47.009675
RightForeArm -0.000000 -42.871886 19.770823
RightHand -6.143702 -0.000000 -6.063391
RightHandThumb1 -24.326973 -32.862282 -0.000000
LeftUpLeg -3.563567 8.676579 -8.560123
LeftLeg 4.692369 -0.000000 -0.000000
LeftFoot -23.538243 16.932901 -14.132119
LeftToeBase 23.303654 -0.000000 -0.000000
RightUpLeg -2.451763 -12.807674 -3.996652
RightLeg 5.420161 -0.000000 -0.000000
RightFoot -25.867307 -31.214532 15.123783
RightToeBase 25.403843 -0.000000 -0.000000
528
root 8.823257 35.855649 -11.241835 5.393188 5.232182 2.753596
Spine -4.688673 -12.701713 -5.635790
Head -6.559979 4.285998 18.241624
LeftShoulder -32.999137 1.401918 7.444003
LeftArm 22.140460 -28.084719 -44.569232
LeftForeArm -0.000000 15.763333 4.561198
LeftHand 3.161913 -0.000000 10.420933
LeftHandThumb1 -26.253704 33.147579 0.000000
RightShoulder -2.137528 11.146796 -3.500026
RightArm 2.529205 36.311200 47.028806
RightForeArm 0.000000 -41.700628 20.477644
RightHand -6.141817 -0.000000 -6.355016
RightHandThumb1 -24.326973 -32.862282 -0.000000
LeftUpLeg -3.088325 8.548138 -8.621036
LeftLeg 4.396721 -0.000000 -0.000000
LeftFoot -23.431790 16.938624 -13.991878
LeftToeBase 23.358788 -0.000000 -0.000000
RightUpLeg -2.837566 -12.411294 -4.163038
RightLeg 6.828433 -0.000000 -0.000000
RightFoot -26.326386 -31.625606 15.299195
RightToeBase 25.143789 -0.000000 -0.000000
529
root 8.895172 35.851523 -11.233487 5.029776 5.345227 2.751588
Spine -4.364210 -12.794761 -5.691895
Head -6.411223 4.187214 18.227920
LeftShoulder -33.321643 1.510759 7.284814
LeftArm 20.785235 -28.346082 -45.008224
LeftForeArm -0.000000 14.889917 4.858468
LeftHand 3.226329 -0.000000 10.699264
LeftHandThumb1 -26.253704 33.147579 0.000000
RightShoulder -2.536066 10.459116 -3.347969
RightArm 1.100031 36.537198 47.087352
RightForeArm -0.000000 -40.829636 21.206703
RightHand -6.036376 0.000000 -6.567997
RightHandThumb1 -24.326973 -32.862282 -0.000000
LeftUpLeg -2.618285 8.627251 -8.657292
LeftLeg 4.252649 -0.000000 -0.000000
LeftFoot -23.346428 16.774375 -13.844868
LeftToeBase 23.360303 -0.000000 -0.000000
RightUpLeg -3.148253 -11.784955 -4.318219
RightLeg 8.270930 -0.000000 -0.000000
RightFoot -26.734132 -32.242446 15.502656
RightToeBase 24.904897 -0.000000 -0.000000
530
root 8.964644 35.850155 -11.240375 4.739824 5.522561 2.749238
Spine -4.082518 -12.974469 -5.737981
Head -6.259320 4.119318 18.236310
LeftShoulder -33.655277 1.649409 7.129312
LeftArm 19.644388 -29.069050 -45.761532
LeftForeArm -0.000000 14.294430 4.959349
LeftHand 3.465310 -0.000000 10.610334
LeftHandThumb1 -26.253704 33.147579 0.000000
RightShoulder -2.869592 9.746483 -3.158568
RightArm -0.301921 36.837608 47.220475
RightForeArm -0.000000 -40.188553 21.901712
RightHand -6.185970 -0.000000 -6.857772
RightHandThumb1 -24.326973 -32.862282 -0.000000
LeftUpLeg -2.266128 8.642276 -8.701632
LeftLeg 4.149288 -0.000000 -0.000000
LeftFoot -23.243202 16.591989 -13.744053
LeftToeBase 23.345146 -0.000000 -0.000000
RightUpLeg -3.640120 -11.129309 -4.436432
RightLeg 9.888546 -0.000000 -0.000000
RightFoot -27.109383 -32.925467 15.728119
RightToeBase 24.614172 -0.000000 -0.000000
531
root 9.033012 35.849425 -11.251743 4.439613 5.697177 2.728907
Spine -3.795460 -13.148596 -5.759784
Head -6.064501 4.085424 18.209825
LeftShoulder -33.980556 1.884399 6.820982
LeftArm 18.676530 -29.740639 -46.489369
LeftForeArm -0.000000 13.605638 4.981599
LeftHand 3.647379 -0.000000 10.781695
LeftHandThumb1 -26.253704 33.147579 0.000000
RightShoulder -3.229570 9.004709 -2.960867
RightArm -1.607321 37.101573 47.441701
RightForeArm 0.000000 -39.778074 22.594735
RightHand -6.001780 0.000000 -7.145007
RightHandThumb1 -24.326973 -32.862282 -0.000000
LeftUpLeg -1.986487 8.831224 -8.737528
LeftLeg 4.174033 -0.000000 -0.000000
LeftFoot -23.181622 16.299642 -13.638797
LeftToeBase 23.373655 -0.000000 -0.000000
RightUpLeg -4.293752 -10.566708 -4.524870
RightLeg 11.812824 -0.000000 -0.000000
RightFoot -27.460130 -33.511797 15.956908
RightToeBase 24.399725 -0.000000 -0.000000
532
root 9.094083 35.851016 -11.267849 4.145190 5.936204 2.655371
Spine -3.496410 -13.401737 -5.735967
Head -5.869222 4.021746 18.218322
LeftShoulder -34.259472 2.051811 6.559756
LeftArm 17.422267 -29.732062 -46.964632
LeftForeArm -0.000000 12.280496 5.159375
LeftHand 3.561978 -0.000000 10.857225
LeftHandThumb1 -26.253704 33.147579 0.000000
RightShoulder -3.573221 8.280453 -2.770853
RightArm -2.893060 37.336815 47.800507
RightForeArm -0.000000 -39.394972 23.266193
RightHand -5.941500 -0.000000 -7.585901
RightHandThumb1 -24.326973 -32.862282 -0.000000
LeftUpLeg -1.637478 8.679413 -8.708488
LeftLeg 4.033375 -0.000000 -0.000000
LeftFoot -23.111305 16.315046 -13.527911
LeftToeBase 23.407672 -0.000000 -0.000000
RightUpLeg -4.864989 -9.554574 -4.539133
RightLeg 13.578868 -0.000000 -0.000000
RightFoot -27.666586 -34.507771 16.158951
RightToeBase 24.240363 -0.000000 -0.000000
533
root 9.159991 35.854131 -11.285357 3.797068 6.178631 2.589405
Spine -3.135321 -13.700400 -5.713217
Head -5.661083 4.017816 18.207325
LeftShoulder -34.619083 2.213950 6.233737
LeftArm 16.623447 -30.408059 -47.784311
LeftForeArm -0.000000 11.758265 4.869722
LeftHand 3.653335 -0.000000 10.969063
LeftHandThumb1 -26.253704 33.147579 0.000000
RightShoulder -3.868476 7.504766 -2.540635
RightArm -4.042573 37.420965 48.222633
RightForeArm -0.000000 -38.895517 23.875341
RightHand -5.978709 -0.000000 -8.174761
RightHandThumb1 -24.326973 -32.862282 -0.000000
LeftUpLeg -1.321472 8.677956 -8.686837
LeftLeg 4.052081 -0.000000 -0.000000
LeftFoot -23.055898 16.174466 -13.447680
LeftToeBase 23.411927 -0.000000 -0.000000
RightUpLeg -5.498302 -8.592854 -4.567894
RightLeg 15.565430 -0.000000 -0.000000
RightFoot -27.721102 -35.480117 16.192190
RightToeBase 24.190426 -0.000000 -0.000000
